<svg width="208" height="208" viewBox="0 0 208 208" fill="none" xmlns="http://www.w3.org/2000/svg">
<g clip-path="url(#clip0_41_7569)">
<rect width="208" height="208" rx="52" fill="#AD7100"/>
<path d="M103.378 166.095L70.1996 85.7999L124.478 51.8419L231.09 121.699L195.206 223.115L103.378 166.095Z" fill="#8F5D00"/>
<path d="M104 46.8C78.1959 46.8 57.2004 68.2623 57.2004 94.6101C57.0308 133.151 102.222 165.108 104 166.4C104 166.4 150.969 133.151 150.799 94.64C150.799 68.2623 129.804 46.8 104 46.8ZM104 118.56C91.0716 118.56 80.6002 107.856 80.6002 94.64C80.6002 81.4242 91.0716 70.72 104 70.72C116.928 70.72 127.4 81.4242 127.4 94.64C127.4 107.856 116.928 118.56 104 118.56Z" fill="white"/>
</g>
<defs>
<clipPath id="clip0_41_7569">
<rect width="208" height="208" rx="52" fill="white"/>
</clipPath>
</defs>
</svg>
